# This file uses centimeters as units for non-parametric coordinates.

mtllib beveled_cube.mtl
g default
v -29.990090 -28.354753 27.198394
v -29.335063 -29.335063 27.198394
v -28.354753 -29.990090 27.198394
v -27.198394 -30.220104 27.198394
v -27.198394 -29.990090 28.354753
v -27.198394 -29.335063 29.335063
v -27.198394 -28.354753 29.990090
v -27.198394 -27.198394 30.220104
v -28.354753 -27.198394 29.990090
v -29.335063 -27.198394 29.335063
v -29.990090 -27.198394 28.354753
v -30.220104 -27.198394 27.198394
v 28.354753 -29.990090 27.198394
v 29.335063 -29.335063 27.198394
v 29.990090 -28.354753 27.198394
v 30.220104 -27.198394 27.198394
v 29.990090 -27.198394 28.354753
v 29.335063 -27.198394 29.335063
v 28.354753 -27.198394 29.990090
v 27.198394 -27.198394 30.220104
v 27.198394 -28.354753 29.990090
v 27.198394 -29.335063 29.335063
v 27.198394 -29.990090 28.354753
v 27.198394 -30.220104 27.198394
v -28.354753 29.990090 27.198394
v -29.335063 29.335063 27.198394
v -29.990090 28.354753 27.198394
v -30.220104 27.198394 27.198394
v -29.990090 27.198394 28.354753
v -29.335063 27.198394 29.335063
v -28.354753 27.198394 29.990090
v -27.198394 27.198394 30.220104
v -27.198394 28.354753 29.990090
v -27.198394 29.335063 29.335063
v -27.198394 29.990090 28.354753
v -27.198394 30.220104 27.198394
v 29.990090 28.354753 27.198394
v 29.335063 29.335063 27.198394
v 28.354753 29.990090 27.198394
v 27.198394 30.220104 27.198394
v 27.198394 29.990090 28.354753
v 27.198394 29.335063 29.335063
v 27.198394 28.354753 29.990090
v 27.198394 27.198394 30.220104
v 28.354753 27.198394 29.990090
v 29.335063 27.198394 29.335063
v 29.990090 27.198394 28.354753
v 30.220104 27.198394 27.198394
v -28.354753 27.198394 -29.990090
v -29.335063 27.198394 -29.335063
v -29.990090 27.198394 -28.354753
v -30.220104 27.198394 -27.198394
v -29.990090 28.354753 -27.198394
v -29.335063 29.335063 -27.198394
v -28.354753 29.990090 -27.198394
v -27.198394 30.220104 -27.198394
v -27.198394 29.990090 -28.354753
v -27.198394 29.335063 -29.335063
v -27.198394 28.354753 -29.990090
v -27.198394 27.198394 -30.220104
v 29.990090 27.198394 -28.354753
v 29.335063 27.198394 -29.335063
v 28.354753 27.198394 -29.990090
v 27.198394 27.198394 -30.220104
v 27.198394 28.354753 -29.990090
v 27.198394 29.335063 -29.335063
v 27.198394 29.990090 -28.354753
v 27.198394 30.220104 -27.198394
v 28.354753 29.990090 -27.198394
v 29.335063 29.335063 -27.198394
v 29.990090 28.354753 -27.198394
v 30.220104 27.198394 -27.198394
v -28.354753 -29.990090 -27.198394
v -29.335063 -29.335063 -27.198394
v -29.990090 -28.354753 -27.198394
v -30.220104 -27.198394 -27.198394
v -29.990090 -27.198394 -28.354753
v -29.335063 -27.198394 -29.335063
v -28.354753 -27.198394 -29.990090
v -27.198394 -27.198394 -30.220104
v -27.198394 -28.354753 -29.990090
v -27.198394 -29.335063 -29.335063
v -27.198394 -29.990090 -28.354753
v -27.198394 -30.220104 -27.198394
v 29.990090 -28.354753 -27.198394
v 29.335063 -29.335063 -27.198394
v 28.354753 -29.990090 -27.198394
v 27.198394 -30.220104 -27.198394
v 27.198394 -29.990090 -28.354753
v 27.198394 -29.335063 -29.335063
v 27.198394 -28.354753 -29.990090
v 27.198394 -27.198394 -30.220104
v 28.354753 -27.198394 -29.990090
v 29.335063 -27.198394 -29.335063
v 29.990090 -27.198394 -28.354753
v 30.220104 -27.198394 -27.198394
v -29.834726 -28.241393 28.241393
v -29.239470 -29.239470 28.083912
v -28.241393 -29.834726 28.241393
v -28.083912 -29.239470 29.239470
v -28.241393 -28.241393 29.834726
v -29.239470 -28.083912 29.239470
v -28.942370 -28.942370 28.942370
v 28.241393 -29.834726 28.241393
v 29.239470 -29.239470 28.083912
v 29.834726 -28.241393 28.241393
v 29.239470 -28.083912 29.239470
v 28.241393 -28.241393 29.834726
v 28.083912 -29.239470 29.239470
v 28.942370 -28.942370 28.942370
v -28.241393 29.834726 28.241393
v -29.239470 29.239470 28.083912
v -29.834726 28.241393 28.241393
v -29.239470 28.083912 29.239470
v -28.241393 28.241393 29.834726
v -28.083912 29.239470 29.239470
v -28.942370 28.942370 28.942370
v 29.834726 28.241393 28.241393
v 29.239470 29.239470 28.083912
v 28.241393 29.834726 28.241393
v 28.083912 29.239470 29.239470
v 28.241393 28.241393 29.834726
v 29.239470 28.083912 29.239470
v 28.942370 28.942370 28.942370
v -28.241393 28.241393 -29.834726
v -29.239470 28.083912 -29.239470
v -29.834726 28.241393 -28.241393
v -29.239470 29.239470 -28.083912
v -28.241393 29.834726 -28.241393
v -28.083912 29.239470 -29.239470
v -28.942370 28.942370 -28.942370
v 29.834726 28.241393 -28.241393
v 29.239470 28.083912 -29.239470
v 28.241393 28.241393 -29.834726
v 28.083912 29.239470 -29.239470
v 28.241393 29.834726 -28.241393
v 29.239470 29.239470 -28.083912
v 28.942370 28.942370 -28.942370
v -28.241393 -29.834726 -28.241393
v -29.239470 -29.239470 -28.083912
v -29.834726 -28.241393 -28.241393
v -29.239470 -28.083912 -29.239470
v -28.241393 -28.241393 -29.834726
v -28.083912 -29.239470 -29.239470
v -28.942370 -28.942370 -28.942370
v 29.834726 -28.241393 -28.241393
v 29.239470 -29.239470 -28.083912
v 28.241393 -29.834726 -28.241393
v 28.083912 -29.239470 -29.239470
v 28.241393 -28.241393 -29.834726
v 29.239470 -28.083912 -29.239470
v 28.942370 -28.942370 -28.942370
vt 0.387499 0.987501
vt 0.387499 0.012499
vt 0.612501 0.987501
vt 0.637499 0.012499
vt 0.387499 0.237501
vt 0.612501 0.237501
vt 0.637499 0.237501
vt 0.137499 0.012499
vt 0.387499 0.487501
vt 0.612501 0.487501
vt 0.862501 0.237501
vt 0.862501 0.012499
vt 0.612501 0.762499
vt 0.387499 0.737501
vt 0.612501 0.737501
vt 0.612501 0.012499
vt 0.387499 0.262499
vt 0.612501 0.262499
vt 0.387499 0.512499
vt 0.612501 0.512499
vt 0.387499 0.762499
vt 0.362501 0.012499
vt 0.362501 0.237501
vt 0.137499 0.237501
vt 0.364771 0.006252
vt 0.375000 0.992033
vt 0.367033 -0.000000
vt 0.381228 0.989772
vt 0.385229 0.993771
vt 0.382967 -0.000000
vt 0.382967 1.000000
vt 0.385229 0.006253
vt 0.381229 0.012398
vt 0.374999 0.012356
vt 0.368772 0.012399
vt 0.618772 0.989771
vt 0.632967 -0.000000
vt 0.625000 0.992033
vt 0.635228 0.006253
vt 0.631228 0.012398
vt 0.624999 0.012356
vt 0.618772 0.012399
vt 0.614771 0.006252
vt 0.617033 1.000000
vt 0.617033 -0.000000
vt 0.614771 0.993772
vt 0.381252 0.260228
vt 0.367033 0.250000
vt 0.375000 0.257967
vt 0.364773 0.243747
vt 0.368790 0.237601
vt 0.375036 0.237642
vt 0.381272 0.237599
vt 0.387400 0.243729
vt 0.387358 0.249964
vt 0.387400 0.256209
vt 0.635228 0.243748
vt 0.625000 0.257967
vt 0.632967 0.250000
vt 0.618747 0.260227
vt 0.612601 0.256209
vt 0.612642 0.249964
vt 0.612599 0.243728
vt 0.618729 0.237600
vt 0.624964 0.237642
vt 0.631209 0.237600
vt 0.381252 0.510229
vt 0.125000 0.242033
vt 0.375000 0.507967
vt 0.131228 0.239771
vt 0.135229 0.243772
vt 0.375000 0.492033
vt 0.132967 0.250000
vt 0.381253 0.489772
vt 0.387398 0.493772
vt 0.387356 0.500001
vt 0.387399 0.506228
vt 0.868771 0.239771
vt 0.625000 0.507967
vt 0.875000 0.242033
vt 0.618747 0.510229
vt 0.612602 0.506228
vt 0.612644 0.499999
vt 0.612601 0.493772
vt 0.618748 0.489771
vt 0.867033 0.250000
vt 0.625000 0.492033
vt 0.864772 0.243772
vt 0.381252 0.760229
vt 0.132967 -0.000000
vt 0.375000 0.757967
vt 0.135228 0.006228
vt 0.131229 0.010229
vt 0.375000 0.742033
vt 0.125000 0.007967
vt 0.381253 0.739771
vt 0.387398 0.743772
vt 0.387356 0.750001
vt 0.387399 0.756228
vt 0.864771 0.006228
vt 0.625000 0.757967
vt 0.867033 -0.000000
vt 0.618747 0.760228
vt 0.612602 0.756228
vt 0.612644 0.749999
vt 0.612601 0.743772
vt 0.618748 0.739771
vt 0.875000 0.007967
vt 0.625000 0.742033
vt 0.868772 0.010229
vt 0.369486 0.006638
vt 0.375000 0.995887
vt 0.370887 -0.000000
vt 0.380516 0.994493
vt 0.379113 -0.000000
vt 0.379113 1.000000
vt 0.380509 0.006638
vt 0.375013 0.007060
vt 0.375000 1.000000
vt 0.375000 0.000000
vt 0.619493 0.994484
vt 0.629113 -0.000000
vt 0.625000 0.995887
vt 0.630509 0.006638
vt 0.625013 0.007060
vt 0.619486 0.006638
vt 0.620887 1.000000
vt 0.620887 -0.000000
vt 0.625000 0.000000
vt 0.625000 1.000000
vt 0.381641 0.255462
vt 0.370887 0.250000
vt 0.375000 0.254113
vt 0.369542 0.243360
vt 0.375239 0.242929
vt 0.381694 0.243310
vt 0.382071 0.249759
vt 0.375000 0.250000
vt 0.630462 0.243359
vt 0.625000 0.254113
vt 0.629113 0.250000
vt 0.618360 0.255458
vt 0.617929 0.249761
vt 0.618310 0.243306
vt 0.624759 0.242929
vt 0.625000 0.250000
vt 0.381638 0.505514
vt 0.125000 0.245887
vt 0.375000 0.504113
vt 0.130516 0.244493
vt 0.375000 0.495887
vt 0.129113 0.250000
vt 0.381638 0.494491
vt 0.382060 0.499987
vt 0.125000 0.250000
vt 0.375000 0.500000
vt 0.869493 0.244484
vt 0.625000 0.504113
vt 0.875000 0.245887
vt 0.618362 0.505509
vt 0.617940 0.500013
vt 0.618362 0.494486
vt 0.870887 0.250000
vt 0.625000 0.495887
vt 0.625000 0.500000
vt 0.875000 0.250000
vt 0.381638 0.755514
vt 0.129113 -0.000000
vt 0.375000 0.754113
vt 0.130507 0.005516
vt 0.375000 0.745887
vt 0.125000 0.004113
vt 0.381638 0.744491
vt 0.382060 0.749987
vt 0.125000 0.000000
vt 0.375000 0.750000
vt 0.869484 0.005507
vt 0.625000 0.754113
vt 0.870887 -0.000000
vt 0.618362 0.755509
vt 0.617940 0.750013
vt 0.618362 0.744486
vt 0.875000 0.004113
vt 0.625000 0.745887
vt 0.625000 0.750000
vt 0.875000 0.000000
vn -0.004125 -0.999983 0.004125
vn -0.382408 -0.923988 0.003142
vn -0.382408 -0.923988 -0.003142
vn -0.004125 -0.999983 -0.004125
vn -0.707104 -0.707104 0.002905
vn -0.707104 -0.707104 -0.002905
vn -0.923988 -0.382408 0.003142
vn -0.923988 -0.382408 -0.003142
vn -0.999983 -0.004125 0.004125
vn -0.999983 -0.004125 -0.004125
vn -0.004125 -0.004125 0.999983
vn -0.003142 -0.382408 0.923988
vn 0.003142 -0.382408 0.923988
vn 0.004125 -0.004125 0.999983
vn -0.002905 -0.707104 0.707104
vn 0.002905 -0.707104 0.707104
vn -0.003142 -0.923988 0.382408
vn 0.003142 -0.923988 0.382408
vn 0.004125 -0.999983 0.004125
vn -0.923988 -0.003142 0.382408
vn -0.923988 0.003142 0.382408
vn -0.999983 0.004125 0.004125
vn -0.707104 -0.002905 0.707104
vn -0.707104 0.002905 0.707104
vn -0.382408 -0.003142 0.923988
vn -0.382408 0.003142 0.923988
vn -0.004125 0.004125 0.999983
vn 0.999983 -0.004125 0.004125
vn 0.923988 -0.382408 0.003142
vn 0.923988 -0.382408 -0.003142
vn 0.999983 -0.004125 -0.004125
vn 0.707104 -0.707104 0.002905
vn 0.707104 -0.707104 -0.002905
vn 0.382408 -0.923988 0.003142
vn 0.382408 -0.923988 -0.003142
vn 0.004125 -0.999983 -0.004125
vn 0.382408 -0.003142 0.923988
vn 0.382408 0.003142 0.923988
vn 0.004125 0.004125 0.999983
vn 0.707104 -0.002905 0.707104
vn 0.707104 0.002905 0.707104
vn 0.923988 -0.003142 0.382408
vn 0.923988 0.003142 0.382408
vn 0.999983 0.004125 0.004125
vn -0.923988 0.382408 0.003142
vn -0.923988 0.382408 -0.003142
vn -0.999983 0.004125 -0.004125
vn -0.707104 0.707104 0.002905
vn -0.707104 0.707104 -0.002905
vn -0.382408 0.923988 0.003142
vn -0.382408 0.923988 -0.003142
vn -0.004125 0.999983 0.004125
vn -0.004125 0.999983 -0.004125
vn -0.003142 0.923988 0.382408
vn 0.003142 0.923988 0.382408
vn 0.004125 0.999983 0.004125
vn -0.002905 0.707104 0.707104
vn 0.002905 0.707104 0.707104
vn -0.003142 0.382408 0.923988
vn 0.003142 0.382408 0.923988
vn 0.382408 0.923988 0.003142
vn 0.382408 0.923988 -0.003142
vn 0.004125 0.999983 -0.004125
vn 0.707104 0.707104 0.002905
vn 0.707104 0.707104 -0.002905
vn 0.923988 0.382408 0.003142
vn 0.923988 0.382408 -0.003142
vn 0.999983 0.004125 -0.004125
vn -0.923988 0.003142 -0.382408
vn -0.923988 -0.003142 -0.382408
vn -0.707104 0.002905 -0.707104
vn -0.707104 -0.002905 -0.707104
vn -0.382408 0.003142 -0.923988
vn -0.382408 -0.003142 -0.923988
vn -0.004125 0.004125 -0.999983
vn -0.004125 -0.004125 -0.999983
vn -0.003142 0.382408 -0.923988
vn 0.003142 0.382408 -0.923988
vn 0.004125 0.004125 -0.999983
vn -0.002905 0.707104 -0.707104
vn 0.002905 0.707104 -0.707104
vn -0.003142 0.923988 -0.382408
vn 0.003142 0.923988 -0.382408
vn 0.382408 0.003142 -0.923988
vn 0.382408 -0.003142 -0.923988
vn 0.004125 -0.004125 -0.999983
vn 0.707104 0.002905 -0.707104
vn 0.707104 -0.002905 -0.707104
vn 0.923988 0.003142 -0.382408
vn 0.923988 -0.003142 -0.382408
vn -0.003142 -0.923988 -0.382408
vn 0.003142 -0.923988 -0.382408
vn -0.002905 -0.707104 -0.707104
vn 0.002905 -0.707104 -0.707104
vn -0.003142 -0.382408 -0.923988
vn 0.003142 -0.382408 -0.923988
vn -0.878772 -0.337461 0.337461
vn -0.673146 -0.673146 0.306184
vn -0.337461 -0.878772 0.337461
vn -0.306184 -0.673146 0.673146
vn -0.337461 -0.337461 0.878772
vn -0.673146 -0.306184 0.673146
vn -0.577350 -0.577350 0.577350
vn 0.337461 -0.878772 0.337460
vn 0.673146 -0.673147 0.306183
vn 0.878772 -0.337460 0.337461
vn 0.673147 -0.306183 0.673146
vn 0.337460 -0.337461 0.878772
vn 0.306183 -0.673146 0.673147
vn 0.577350 -0.577350 0.577350
vn -0.337461 0.878772 0.337460
vn -0.673146 0.673147 0.306183
vn -0.878772 0.337460 0.337461
vn -0.673147 0.306183 0.673146
vn -0.337460 0.337461 0.878772
vn -0.306183 0.673146 0.673147
vn -0.577350 0.577350 0.577350
vn 0.878772 0.337461 0.337461
vn 0.673146 0.673146 0.306184
vn 0.337461 0.878772 0.337461
vn 0.306184 0.673146 0.673146
vn 0.337461 0.337461 0.878772
vn 0.673146 0.306184 0.673146
vn 0.577350 0.577350 0.577350
vn -0.337461 0.337461 -0.878772
vn -0.673146 0.306184 -0.673146
vn -0.878772 0.337461 -0.337461
vn -0.673146 0.673146 -0.306184
vn -0.337461 0.878772 -0.337461
vn -0.306184 0.673146 -0.673146
vn -0.577350 0.577350 -0.577350
vn 0.878772 0.337460 -0.337461
vn 0.673147 0.306183 -0.673146
vn 0.337460 0.337461 -0.878772
vn 0.306183 0.673146 -0.673147
vn 0.337461 0.878772 -0.337460
vn 0.673146 0.673147 -0.306183
vn 0.577350 0.577350 -0.577350
vn -0.337461 -0.878772 -0.337460
vn -0.673146 -0.673147 -0.306183
vn -0.878772 -0.337460 -0.337461
vn -0.673147 -0.306183 -0.673146
vn -0.337460 -0.337461 -0.878772
vn -0.306183 -0.673146 -0.673147
vn -0.577350 -0.577350 -0.577350
vn 0.878772 -0.337461 -0.337461
vn 0.673146 -0.673146 -0.306184
vn 0.337461 -0.878772 -0.337461
vn 0.306184 -0.673146 -0.673146
vn 0.337461 -0.337461 -0.878772
vn 0.673146 -0.306184 -0.673146
vn 0.577350 -0.577350 -0.577350
s 1
g pCube1
usemtl initialShadingGroup
f 4/1/1 3/28/2 73/89/3 84/21/4
f 3/28/2 2/26/5 74/91/6 73/89/3
f 2/27/5 1/25/7 75/92/8 74/90/6
f 1/25/7 12/22/9 76/8/10 75/92/8
f 8/2/11 7/32/12 21/43/13 20/16/14
f 7/32/12 6/30/15 22/45/16 21/43/13
f 6/31/15 5/29/17 23/46/18 22/44/16
f 5/29/17 4/1/1 24/3/19 23/46/18
f 12/22/9 11/35/20 29/51/21 28/23/22
f 11/35/20 10/34/23 30/52/24 29/51/21
f 10/34/23 9/33/25 31/53/26 30/52/24
f 9/33/25 8/2/11 32/5/27 31/53/26
f 16/4/28 15/39/29 85/100/30 96/12/31
f 15/39/29 14/37/32 86/102/33 85/100/30
f 14/38/32 13/36/34 87/103/35 86/101/33
f 13/36/34 24/3/19 88/13/36 87/103/35
f 20/16/14 19/42/37 45/64/38 44/6/39
f 19/42/37 18/41/40 46/65/41 45/64/38
f 18/41/40 17/40/42 47/66/43 46/65/41
f 17/40/42 16/4/28 48/7/44 47/66/43
f 28/23/22 27/50/45 53/71/46 52/24/47
f 27/50/45 26/48/48 54/73/49 53/71/46
f 26/49/48 25/47/50 55/74/51 54/72/49
f 25/47/50 36/17/52 56/9/53 55/74/51
f 36/17/52 35/56/54 41/61/55 40/18/56
f 35/56/54 34/55/57 42/62/58 41/61/55
f 34/55/57 33/54/59 43/63/60 42/62/58
f 33/54/59 32/5/27 44/6/39 43/63/60
f 40/18/56 39/60/61 69/85/62 68/10/63
f 39/60/61 38/58/64 70/87/65 69/85/62
f 38/59/64 37/57/66 71/88/67 70/86/65
f 37/57/66 48/7/44 72/11/68 71/88/67
f 52/24/47 51/70/69 77/93/70 76/8/10
f 51/70/69 50/68/71 78/95/72 77/93/70
f 50/69/71 49/67/73 79/96/74 78/94/72
f 49/67/73 60/19/75 80/14/76 79/96/74
f 60/19/75 59/77/77 65/82/78 64/20/79
f 59/77/77 58/76/80 66/83/81 65/82/78
f 58/76/80 57/75/82 67/84/83 66/83/81
f 57/75/82 56/9/53 68/10/63 67/84/83
f 64/20/79 63/81/84 93/107/85 92/15/86
f 63/81/84 62/79/87 94/109/88 93/107/85
f 62/80/87 61/78/89 95/110/90 94/108/88
f 61/78/89 72/11/68 96/12/31 95/110/90
f 84/21/4 83/99/91 89/104/92 88/13/36
f 83/99/91 82/98/93 90/105/94 89/104/92
f 82/98/93 81/97/95 91/106/96 90/105/94
f 81/97/95 80/14/76 92/15/86 91/106/96
f 8/2/11 20/16/14 44/6/39 32/5/27
f 36/17/52 40/18/56 68/10/63 56/9/53
f 60/19/75 64/20/79 92/15/86 80/14/76
f 84/21/4 88/13/36 24/3/19 4/1/1
f 16/4/28 96/12/31 72/11/68 48/7/44
f 76/8/10 12/22/9 28/23/22 52/24/47
f 11/35/20 12/22/9 1/25/7 97/111/97
f 97/111/97 1/25/7 2/27/5 98/113/98
f 98/112/98 2/26/5 3/28/2 99/114/99
f 3/28/2 4/1/1 5/29/17 99/114/99
f 99/114/99 5/29/17 6/31/15 100/116/100
f 100/115/100 6/30/15 7/32/12 101/117/101
f 7/32/12 8/2/11 9/33/25 101/117/101
f 101/117/101 9/33/25 10/34/23 102/118/102
f 102/118/102 10/34/23 11/35/20 97/111/97
f 102/118/102 97/111/97 98/113/98 103/120/103
f 98/112/98 99/114/99 100/116/100 103/119/103
f 100/115/100 101/117/101 102/118/102 103/120/103
f 23/46/18 24/3/19 13/36/34 104/121/104
f 104/121/104 13/36/34 14/38/32 105/123/105
f 105/122/105 14/37/32 15/39/29 106/124/106
f 15/39/29 16/4/28 17/40/42 106/124/106
f 106/124/106 17/40/42 18/41/40 107/125/107
f 107/125/107 18/41/40 19/42/37 108/126/108
f 19/42/37 20/16/14 21/43/13 108/126/108
f 108/126/108 21/43/13 22/45/16 109/128/109
f 109/127/109 22/44/16 23/46/18 104/121/104
f 109/127/109 104/121/104 105/123/105 110/130/110
f 105/122/105 106/124/106 107/125/107 110/129/110
f 107/125/107 108/126/108 109/128/109 110/129/110
f 35/56/54 36/17/52 25/47/50 111/131/111
f 111/131/111 25/47/50 26/49/48 112/133/112
f 112/132/112 26/48/48 27/50/45 113/134/113
f 27/50/45 28/23/22 29/51/21 113/134/113
f 113/134/113 29/51/21 30/52/24 114/135/114
f 114/135/114 30/52/24 31/53/26 115/136/115
f 31/53/26 32/5/27 33/54/59 115/136/115
f 115/136/115 33/54/59 34/55/57 116/137/116
f 116/137/116 34/55/57 35/56/54 111/131/111
f 116/137/116 111/131/111 112/133/112 117/138/117
f 112/132/112 113/134/113 114/135/114 117/138/117
f 114/135/114 115/136/115 116/137/116 117/138/117
f 47/66/43 48/7/44 37/57/66 118/139/118
f 118/139/118 37/57/66 38/59/64 119/141/119
f 119/140/119 38/58/64 39/60/61 120/142/120
f 39/60/61 40/18/56 41/61/55 120/142/120
f 120/142/120 41/61/55 42/62/58 121/143/121
f 121/143/121 42/62/58 43/63/60 122/144/122
f 43/63/60 44/6/39 45/64/38 122/144/122
f 122/144/122 45/64/38 46/65/41 123/145/123
f 123/145/123 46/65/41 47/66/43 118/139/118
f 123/145/123 118/139/118 119/141/119 124/146/124
f 119/140/119 120/142/120 121/143/121 124/146/124
f 121/143/121 122/144/122 123/145/123 124/146/124
f 59/77/77 60/19/75 49/67/73 125/147/125
f 125/147/125 49/67/73 50/69/71 126/149/126
f 126/148/126 50/68/71 51/70/69 127/150/127
f 51/70/69 52/24/47 53/71/46 127/150/127
f 127/150/127 53/71/46 54/73/49 128/152/128
f 128/151/128 54/72/49 55/74/51 129/153/129
f 55/74/51 56/9/53 57/75/82 129/153/129
f 129/153/129 57/75/82 58/76/80 130/154/130
f 130/154/130 58/76/80 59/77/77 125/147/125
f 130/154/130 125/147/125 126/149/126 131/156/131
f 126/148/126 127/150/127 128/152/128 131/155/131
f 128/151/128 129/153/129 130/154/130 131/156/131
f 71/88/67 72/11/68 61/78/89 132/157/132
f 132/157/132 61/78/89 62/80/87 133/159/133
f 133/158/133 62/79/87 63/81/84 134/160/134
f 63/81/84 64/20/79 65/82/78 134/160/134
f 134/160/134 65/82/78 66/83/81 135/161/135
f 135/161/135 66/83/81 67/84/83 136/162/136
f 67/84/83 68/10/63 69/85/62 136/162/136
f 136/162/136 69/85/62 70/87/65 137/164/137
f 137/163/137 70/86/65 71/88/67 132/157/132
f 137/163/137 132/157/132 133/159/133 138/166/138
f 133/158/133 134/160/134 135/161/135 138/165/138
f 135/161/135 136/162/136 137/164/137 138/165/138
f 83/99/91 84/21/4 73/89/3 139/167/139
f 139/167/139 73/89/3 74/91/6 140/169/140
f 140/168/140 74/90/6 75/92/8 141/170/141
f 75/92/8 76/8/10 77/93/70 141/170/141
f 141/170/141 77/93/70 78/95/72 142/172/142
f 142/171/142 78/94/72 79/96/74 143/173/143
f 79/96/74 80/14/76 81/97/95 143/173/143
f 143/173/143 81/97/95 82/98/93 144/174/144
f 144/174/144 82/98/93 83/99/91 139/167/139
f 144/174/144 139/167/139 140/169/140 145/176/145
f 140/168/140 141/170/141 142/172/142 145/175/145
f 142/171/142 143/173/143 144/174/144 145/176/145
f 95/110/90 96/12/31 85/100/30 146/177/146
f 146/177/146 85/100/30 86/102/33 147/179/147
f 147/178/147 86/101/33 87/103/35 148/180/148
f 87/103/35 88/13/36 89/104/92 148/180/148
f 148/180/148 89/104/92 90/105/94 149/181/149
f 149/181/149 90/105/94 91/106/96 150/182/150
f 91/106/96 92/15/86 93/107/85 150/182/150
f 150/182/150 93/107/85 94/109/88 151/184/151
f 151/183/151 94/108/88 95/110/90 146/177/146
f 151/183/151 146/177/146 147/179/147 152/186/152
f 147/178/147 148/180/148 149/181/149 152/185/152
f 149/181/149 150/182/150 151/184/151 152/185/152
